<svg width="48" height="60" viewBox="0 0 48 60" fill="none" xmlns="http://www.w3.org/2000/svg">
<path d="M46.8979 25.4978L41.1429 9.7473V1.42852C41.1429 0.639609 40.5032 0 39.7144 0H8.28591C7.497 0 6.8574 0.639727 6.8574 1.42852V9.74719L1.1022 25.4978C0.419335 27.3636 0.0704503 29.335 0.0715357 31.3219V55.0765C0.0715357 57.7913 2.28017 60 4.99505 60H43.0051C45.7199 60 47.9286 57.7913 47.9286 55.0765V31.3219C47.9286 29.329 47.5818 27.3694 46.8979 25.4978ZM9.71431 2.85715H38.2858V8.57145H9.71431V2.85715ZM45.0715 50.1321H24.9078C24.1189 50.1321 23.4793 50.7718 23.4793 51.5606C23.4793 52.3495 24.119 52.9891 24.9078 52.9891H45.0715V55.0763C45.0715 56.2157 44.1446 57.1427 43.0051 57.1427H4.99505C3.85564 57.1427 2.92868 56.2158 2.92868 55.0763V31.3219C2.9278 29.6695 3.21794 28.03 3.78579 26.4783L9.28482 11.4286H38.7153L44.2143 26.4783C44.7822 28.03 45.0723 29.6695 45.0714 31.3219L45.0715 50.1321Z" fill="#F1CDB3"/>
<path d="M29.617 33.805C29.1506 30.8772 26.6078 28.632 23.5505 28.632C20.4932 28.632 17.9505 30.8772 17.4841 33.805C15.0671 34.7989 13.4858 37.2756 13.6899 39.9659C13.9176 42.9637 16.3507 45.392 19.349 45.6148C20.5072 45.7011 21.6573 45.4628 22.6751 44.9259C23.2316 44.6328 23.8698 44.6326 24.4257 44.926C25.3085 45.3908 26.2915 45.6331 27.2892 45.632C27.4429 45.632 27.5975 45.6263 27.7517 45.6149C30.7503 45.3923 33.1832 42.9638 33.411 39.966C33.6153 37.2756 32.034 34.7989 29.617 33.805ZM30.5621 39.7495C30.4406 41.35 29.1416 42.6466 27.5403 42.7655C26.9177 42.8126 26.3014 42.6851 25.7587 42.3986C25.0781 42.0394 24.3202 41.8517 23.5507 41.8517C22.7811 41.8517 22.0232 42.0394 21.3426 42.3986C20.7999 42.6849 20.1849 42.8123 19.5609 42.7655C17.9598 42.6467 16.6606 41.3501 16.5392 39.7495C16.4144 38.1062 17.5297 36.6124 19.1332 36.2746C19.4588 36.206 19.7503 36.0259 19.9574 35.7653C20.1644 35.5047 20.274 35.18 20.2672 34.8473L20.2648 34.775C20.2648 32.9632 21.7387 31.4893 23.5505 31.4893C25.3624 31.4893 26.8362 32.9632 26.8362 34.7698L26.834 34.8473C26.8271 35.1801 26.9366 35.5048 27.1437 35.7654C27.3507 36.026 27.6423 36.2061 27.968 36.2746C29.5717 36.6124 30.6869 38.1062 30.5621 39.7495Z" fill="#F1CDB3"/>
<path d="M23.5506 25.7751C26.1108 25.7751 28.1935 23.6924 28.1935 21.1322C28.1935 18.572 26.1108 16.4893 23.5506 16.4893C20.9904 16.4893 18.9078 18.5721 18.9078 21.1322C18.9078 23.6923 20.9907 25.7751 23.5506 25.7751ZM23.5506 19.3465C24.5354 19.3465 25.3364 20.1475 25.3364 21.1322C25.3364 22.1169 24.5354 22.9179 23.5506 22.9179C22.5659 22.9179 21.7649 22.1169 21.7649 21.1322C21.7649 20.1475 22.566 19.3465 23.5506 19.3465Z" fill="#F1CDB3"/>
<path d="M18.1935 26.6561C18.1935 24.0959 16.1108 22.0132 13.5507 22.0132C10.9906 22.0132 8.90783 24.096 8.90783 26.6561C8.90783 29.2162 10.9905 31.2989 13.5507 31.2989C16.1109 31.2989 18.1935 29.2162 18.1935 26.6561ZM13.5507 28.4418C12.566 28.4418 11.765 27.6408 11.765 26.6561C11.765 25.6714 12.566 24.8704 13.5507 24.8704C14.5354 24.8704 15.3364 25.6714 15.3364 26.6561C15.3364 27.6408 14.5353 28.4418 13.5507 28.4418Z" fill="#F1CDB3"/>
<path d="M33.5506 22.0131C30.9904 22.0131 28.9078 24.0959 28.9078 26.656C28.9078 29.216 30.9907 31.2988 33.5506 31.2988C36.1108 31.2988 38.1935 29.2162 38.1935 26.656C38.1935 24.0958 36.1108 22.0131 33.5506 22.0131ZM33.5506 28.4418C32.5659 28.4418 31.7649 27.6408 31.7649 26.6561C31.7649 25.6714 32.566 24.8704 33.5506 24.8704C34.5353 24.8704 35.3363 25.6714 35.3363 26.6561C35.3363 27.6408 34.5353 28.4418 33.5506 28.4418Z" fill="#F1CDB3"/>
<path d="M18.6935 50.1322H18.3466C17.5577 50.1322 16.9181 50.7719 16.9181 51.5607C16.9181 52.3496 17.5578 52.9892 18.3466 52.9892H18.6935C19.4824 52.9892 20.122 52.3495 20.122 51.5607C20.1221 50.7719 19.4825 50.1322 18.6935 50.1322Z" fill="#F1CDB3"/>
</svg>
